<svg xmlns="http://www.w3.org/2000/svg" viewBox="0 0 139.66 13.24"><defs><style>.cls-1{fill:#353535;}</style></defs><title>Dark Logo1</title><g id="Capa_2" data-name="Capa 2"><g id="Capa_1-2" data-name="Capa 1"><path class="cls-1" d="M4.75,12.85A1.15,1.15,0,0,1,4.43,12V2.11H1.1q-1.1,0-1.1-1t1.1-1h9q1.1,0,1.1,1t-1.1,1H6.8V12a1.1,1.1,0,0,1-1.17,1.17A1.17,1.17,0,0,1,4.75,12.85Z"/><path class="cls-1" d="M14.75,12.79a1.09,1.09,0,0,1-.3-.82V1.28a1.1,1.1,0,0,1,.3-.82,1.15,1.15,0,0,1,.83-.29h3.63a6.78,6.78,0,0,1,4.92,1.69,6.31,6.31,0,0,1,1.75,4.75,6.33,6.33,0,0,1-1.75,4.77,6.78,6.78,0,0,1-4.92,1.69H15.59A1.15,1.15,0,0,1,14.75,12.79Zm4.31-1.63q4.45,0,4.45-4.54T19.07,2.09H16.81v9.07Z"/><path class="cls-1" d="M32.59,12.44a5.36,5.36,0,0,1-2.15-2.31,7.77,7.77,0,0,1-.75-3.52,7.71,7.71,0,0,1,.75-3.51A5.37,5.37,0,0,1,32.59.81,6.44,6.44,0,0,1,35.86,0a7.08,7.08,0,0,1,2.27.36,5.91,5.91,0,0,1,1.89,1,1.06,1.06,0,0,1,.33.38,1.19,1.19,0,0,1,.09.49,1.05,1.05,0,0,1-.22.68.66.66,0,0,1-.53.27A1.35,1.35,0,0,1,38.94,3a5.44,5.44,0,0,0-1.47-.82A4.67,4.67,0,0,0,36,1.92a3.52,3.52,0,0,0-2.88,1.19,5.39,5.39,0,0,0-1,3.5,5.43,5.43,0,0,0,1,3.52A3.52,3.52,0,0,0,36,11.32a4.31,4.31,0,0,0,1.46-.24,7,7,0,0,0,1.51-.81,2.56,2.56,0,0,1,.37-.18,1,1,0,0,1,.38-.07.66.66,0,0,1,.53.27,1.05,1.05,0,0,1,.22.68,1.21,1.21,0,0,1-.09.49,1,1,0,0,1-.33.39,5.91,5.91,0,0,1-1.89,1,7.08,7.08,0,0,1-2.27.36A6.44,6.44,0,0,1,32.59,12.44Z"/><path class="cls-1" d="M51.38,12.9a1,1,0,0,1-.26-.69V1.08a.9.9,0,0,1,.25-.67.93.93,0,0,1,.69-.25h6.56q.88,0,.88.77t-.88.77H53v4h5.26q.88,0,.88.77t-.88.77H53v4.93a1,1,0,0,1-.25.7.91.91,0,0,1-.69.26A.9.9,0,0,1,51.38,12.9Z"/><path class="cls-1" d="M73.61,12.35a.74.74,0,0,1-.28.59,1,1,0,0,1-.63.24.81.81,0,0,1-.45-.14.86.86,0,0,1-.32-.39L70.72,9.89H64l-1.21,2.75a.84.84,0,0,1-.33.39.85.85,0,0,1-.46.14,1,1,0,0,1-.65-.24.74.74,0,0,1-.28-.59,1,1,0,0,1,.09-.37L66.34.68a1,1,0,0,1,.41-.46,1.16,1.16,0,0,1,1.19,0,1,1,0,0,1,.41.46L73.52,12A1,1,0,0,1,73.61,12.35Zm-8.92-4h5.37L67.37,2.33Z"/><path class="cls-1" d="M78.9,12.84a5.24,5.24,0,0,1-2-1.06.94.94,0,0,1-.35-.75.87.87,0,0,1,.18-.56.55.55,0,0,1,.44-.23,1.22,1.22,0,0,1,.62.24,6.08,6.08,0,0,0,3.72,1.21,3.91,3.91,0,0,0,2.25-.55,1.8,1.8,0,0,0,.79-1.58,1.3,1.3,0,0,0-.73-1.21,9.64,9.64,0,0,0-2.34-.77,14.12,14.12,0,0,1-2.53-.75A3.76,3.76,0,0,1,77.4,5.69a2.92,2.92,0,0,1-.56-1.84,3.36,3.36,0,0,1,.61-2A4,4,0,0,1,79.16.5,6.16,6.16,0,0,1,81.67,0a7.55,7.55,0,0,1,2.4.37,5.05,5.05,0,0,1,1.87,1.08,1,1,0,0,1,.37.75.85.85,0,0,1-.19.55.57.57,0,0,1-.45.24,1.2,1.2,0,0,1-.6-.24,6.54,6.54,0,0,0-1.58-.92,5,5,0,0,0-1.79-.28,3.66,3.66,0,0,0-2.2.58,1.87,1.87,0,0,0-.79,1.6,1.48,1.48,0,0,0,.7,1.33,7.57,7.57,0,0,0,2.23.82,18.52,18.52,0,0,1,2.61.76,4,4,0,0,1,1.59,1.08,2.6,2.6,0,0,1,.6,1.77,3.25,3.25,0,0,1-.61,2,4,4,0,0,1-1.72,1.32,6.54,6.54,0,0,1-2.56.47A9,9,0,0,1,78.9,12.84Z"/><path class="cls-1" d="M101.29.34a1,1,0,0,1,.26.69V12.22a1,1,0,0,1-.26.69.9.9,0,0,1-.68.27.92.92,0,0,1-.68-.26.94.94,0,0,1-.26-.7V7.29H92.46v4.93a1,1,0,0,1-.26.69.9.9,0,0,1-.68.27.92.92,0,0,1-.68-.26.94.94,0,0,1-.26-.7V1a1,1,0,0,1,.26-.69,1,1,0,0,1,1.36,0,1,1,0,0,1,.26.69V5.75h7.22V1a1,1,0,0,1,.26-.69,1,1,0,0,1,1.36,0Z"/><path class="cls-1" d="M106.64,12.91a.94.94,0,0,1-.26-.7V1a1,1,0,0,1,.26-.69.9.9,0,0,1,.68-.27.94.94,0,0,1,.7.26.94.94,0,0,1,.26.7V12.22a1,1,0,0,1-.25.7.93.93,0,0,1-.71.26A.92.92,0,0,1,106.64,12.91Z"/><path class="cls-1" d="M115.48,12.42a5.37,5.37,0,0,1-2.08-2.29,7.82,7.82,0,0,1-.73-3.5,8,8,0,0,1,.72-3.53A5.22,5.22,0,0,1,115.47.82a6.81,6.81,0,0,1,6.39,0,5.23,5.23,0,0,1,2.08,2.29,8,8,0,0,1,.72,3.51,8,8,0,0,1-.72,3.51,5.28,5.28,0,0,1-2.08,2.3,6.16,6.16,0,0,1-3.21.81A6.07,6.07,0,0,1,115.48,12.42Zm6.2-2.05a5.78,5.78,0,0,0,1.08-3.76,5.78,5.78,0,0,0-1.07-3.75,3.7,3.7,0,0,0-3-1.31,3.65,3.65,0,0,0-3,1.31,5.78,5.78,0,0,0-1.07,3.75,5.82,5.82,0,0,0,1.07,3.76,3.64,3.64,0,0,0,3,1.32A3.69,3.69,0,0,0,121.68,10.37Z"/><path class="cls-1" d="M139.42.34a1,1,0,0,1,.25.69V12.22a1,1,0,0,1-.26.69.88.88,0,0,1-.66.27.84.84,0,0,1-.73-.37l-7.18-9.47v8.88a1,1,0,0,1-.25.69.85.85,0,0,1-.65.27.83.83,0,0,1-.64-.26,1,1,0,0,1-.24-.7V1a1,1,0,0,1,.26-.69A.88.88,0,0,1,130,.07a.84.84,0,0,1,.73.37l7.18,9.49V1a1,1,0,0,1,.24-.69.82.82,0,0,1,.64-.27A.85.85,0,0,1,139.42.34Z"/></g></g></svg>