<svg xmlns="http://www.w3.org/2000/svg" viewBox="0 0 91.29 91.29"><defs><style>.cls-1{fill:#edeef0;}</style></defs><title>Light Acronym1</title><g id="Capa_2" data-name="Capa 2"><g id="Capa_1-2" data-name="Capa 1"><path class="cls-1" d="M45.64,0A45.64,45.64,0,1,0,91.29,45.64,45.64,45.64,0,0,0,45.64,0ZM31.77,38.58a3.13,3.13,0,0,1-2.08.59H25.2v15a2.76,2.76,0,0,1-.81,2.08,3,3,0,0,1-2.15.78,3,3,0,0,1-2.15-.78,2.75,2.75,0,0,1-.81-2.08v-15H14.79a3.13,3.13,0,0,1-2.08-.59,2.24,2.24,0,0,1-.68-1.8A2.2,2.2,0,0,1,12.71,35a3.2,3.2,0,0,1,2.08-.57H29.68a3.2,3.2,0,0,1,2.08.57,2.19,2.19,0,0,1,.68,1.78A2.24,2.24,0,0,1,31.77,38.58Zm23,13.08a9.36,9.36,0,0,1-4.11,3.87,14.35,14.35,0,0,1-6.44,1.34H37.83a2.44,2.44,0,0,1-2.71-2.71v-17a2.44,2.44,0,0,1,2.71-2.71h6.43a14.11,14.11,0,0,1,6.41,1.35,9.58,9.58,0,0,1,4.12,3.87,11.89,11.89,0,0,1,1.43,6A12.16,12.16,0,0,1,54.81,51.66ZM79,54.17a2.4,2.4,0,0,1-.78.84,13,13,0,0,1-13,.73,9.64,9.64,0,0,1-3.91-4,12.86,12.86,0,0,1-1.38-6.11,12.79,12.79,0,0,1,1.38-6.08,9.65,9.65,0,0,1,3.91-4,13,13,0,0,1,13,.73,2.46,2.46,0,0,1,.78.83,2.42,2.42,0,0,1,.24,1.15,2.56,2.56,0,0,1-.56,1.67,1.69,1.69,0,0,1-1.35.68,2.43,2.43,0,0,1-.86-.14,5.2,5.2,0,0,1-.89-.46,9,9,0,0,0-2.1-1,7.28,7.28,0,0,0-2-.29,5.11,5.11,0,0,0-4.22,1.7,8.1,8.1,0,0,0-1.38,5.17,8.15,8.15,0,0,0,1.38,5.2,5.11,5.11,0,0,0,4.22,1.7,5.69,5.69,0,0,0,1.85-.3q.89-.3,2.29-.94.67-.35,1-.48a2.06,2.06,0,0,1,.76-.13,1.69,1.69,0,0,1,1.35.68A2.56,2.56,0,0,1,79.27,53,2.44,2.44,0,0,1,79,54.17Z"/><path class="cls-1" d="M43.85,39.14H41v13h2.86a6.76,6.76,0,0,0,4.92-1.61,6.61,6.61,0,0,0,1.64-4.92,6.55,6.55,0,0,0-1.64-4.9A6.8,6.8,0,0,0,43.85,39.14Z"/></g></g></svg>